<svg width="1190" height="946" viewBox="0 0 1190 946" fill="none" xmlns="http://www.w3.org/2000/svg">
<path d="M12.642 702.545H50.5682L90.625 800.273H92.3295L132.386 702.545H170.312V848H140.483V753.327H139.276L101.634 847.29H81.321L43.679 752.972H42.4716V848H12.642V702.545ZM195.082 848V738.909H225.337V848H195.082ZM210.281 724.847C205.782 724.847 201.924 723.355 198.704 720.372C195.531 717.342 193.945 713.72 193.945 709.506C193.945 705.339 195.531 701.764 198.704 698.781C201.924 695.751 205.782 694.236 210.281 694.236C214.779 694.236 218.614 695.751 221.786 698.781C225.006 701.764 226.616 705.339 226.616 709.506C226.616 713.72 225.006 717.342 221.786 720.372C218.614 723.355 214.779 724.847 210.281 724.847ZM279.83 702.545V848H249.574V702.545H279.83ZM353.782 850.131C342.56 850.131 332.901 847.858 324.805 843.312C316.755 838.72 310.553 832.233 306.197 823.852C301.841 815.424 299.663 805.457 299.663 793.952C299.663 782.73 301.841 772.882 306.197 764.406C310.553 755.931 316.684 749.326 324.592 744.591C332.546 739.856 341.874 737.489 352.575 737.489C359.772 737.489 366.471 738.649 372.674 740.969C378.924 743.241 384.369 746.674 389.009 751.267C393.697 755.86 397.343 761.636 399.947 768.597C402.551 775.509 403.853 783.606 403.853 792.886V801.196H311.737V782.446H375.373C375.373 778.09 374.426 774.231 372.532 770.869C370.638 767.508 368.01 764.88 364.648 762.986C361.334 761.045 357.475 760.074 353.072 760.074C348.479 760.074 344.407 761.139 340.856 763.27C337.352 765.353 334.606 768.17 332.617 771.722C330.629 775.225 329.611 779.132 329.563 783.44V801.267C329.563 806.665 330.558 811.329 332.546 815.259C334.582 819.188 337.447 822.219 341.14 824.349C344.833 826.48 349.213 827.545 354.279 827.545C357.641 827.545 360.719 827.072 363.512 826.125C366.306 825.178 368.697 823.758 370.685 821.864C372.674 819.97 374.189 817.65 375.231 814.903L403.214 816.75C401.793 823.473 398.881 829.345 394.478 834.364C390.122 839.335 384.487 843.218 377.575 846.011C370.709 848.758 362.778 850.131 353.782 850.131ZM423.597 888.909V738.909H453.427V757.233H454.776C456.102 754.297 458.02 751.314 460.529 748.284C463.086 745.206 466.4 742.65 470.472 740.614C474.592 738.53 479.705 737.489 485.813 737.489C493.768 737.489 501.107 739.572 507.83 743.739C514.554 747.858 519.928 754.084 523.952 762.418C527.977 770.704 529.989 781.097 529.989 793.597C529.989 805.765 528.024 816.04 524.094 824.42C520.212 832.754 514.909 839.075 508.185 843.384C501.509 847.645 494.028 849.776 485.742 849.776C479.871 849.776 474.876 848.805 470.756 846.864C466.684 844.922 463.346 842.484 460.742 839.548C458.138 836.565 456.149 833.559 454.776 830.528H453.853V888.909H423.597ZM453.214 793.455C453.214 799.941 454.113 805.599 455.913 810.429C457.712 815.259 460.316 819.023 463.725 821.722C467.134 824.373 471.277 825.699 476.154 825.699C481.078 825.699 485.245 824.349 488.654 821.651C492.063 818.904 494.644 815.116 496.396 810.287C498.195 805.41 499.094 799.799 499.094 793.455C499.094 787.157 498.219 781.617 496.467 776.835C494.715 772.053 492.134 768.312 488.725 765.614C485.316 762.915 481.126 761.565 476.154 761.565C471.23 761.565 467.063 762.867 463.654 765.472C460.292 768.076 457.712 771.769 455.913 776.551C454.113 781.333 453.214 786.968 453.214 793.455ZM581.268 850.06C574.308 850.06 568.105 848.852 562.66 846.438C557.215 843.975 552.906 840.353 549.734 835.571C546.609 830.741 545.046 824.728 545.046 817.531C545.046 811.471 546.159 806.381 548.384 802.261C550.61 798.142 553.64 794.828 557.475 792.318C561.31 789.809 565.666 787.915 570.543 786.636C575.468 785.358 580.629 784.458 586.026 783.938C592.371 783.275 597.485 782.659 601.367 782.091C605.25 781.475 608.067 780.576 609.819 779.392C611.571 778.208 612.447 776.456 612.447 774.136V773.71C612.447 769.212 611.026 765.732 608.185 763.27C605.392 760.808 601.415 759.577 596.254 759.577C590.808 759.577 586.476 760.784 583.256 763.199C580.037 765.566 577.906 768.549 576.864 772.148L548.881 769.875C550.302 763.246 553.095 757.517 557.262 752.688C561.429 747.811 566.803 744.07 573.384 741.466C580.013 738.814 587.683 737.489 596.396 737.489C602.456 737.489 608.256 738.199 613.796 739.619C619.383 741.04 624.331 743.241 628.64 746.224C632.996 749.207 636.429 753.043 638.938 757.73C641.448 762.37 642.702 767.934 642.702 774.42V848H614.009V832.872H613.157C611.405 836.281 609.061 839.288 606.126 841.892C603.19 844.449 599.663 846.461 595.543 847.929C591.424 849.349 586.665 850.06 581.268 850.06ZM589.933 829.179C594.383 829.179 598.313 828.303 601.722 826.551C605.131 824.752 607.807 822.337 609.748 819.307C611.689 816.277 612.66 812.844 612.66 809.009V797.432C611.713 798.047 610.411 798.616 608.754 799.136C607.144 799.61 605.321 800.06 603.285 800.486C601.249 800.865 599.213 801.22 597.177 801.551C595.141 801.835 593.294 802.096 591.637 802.332C588.086 802.853 584.985 803.682 582.333 804.818C579.682 805.955 577.622 807.493 576.154 809.435C574.686 811.329 573.952 813.696 573.952 816.537C573.952 820.656 575.444 823.805 578.427 825.983C581.457 828.114 585.292 829.179 589.933 829.179ZM706.374 849.776C698.088 849.776 690.584 847.645 683.86 843.384C677.184 839.075 671.881 832.754 667.951 824.42C664.068 816.04 662.127 805.765 662.127 793.597C662.127 781.097 664.139 770.704 668.164 762.418C672.189 754.084 677.539 747.858 684.215 743.739C690.939 739.572 698.301 737.489 706.303 737.489C712.411 737.489 717.501 738.53 721.573 740.614C725.692 742.65 729.007 745.206 731.516 748.284C734.073 751.314 736.014 754.297 737.34 757.233H738.263V702.545H768.448V848H738.619V830.528H737.34C735.92 833.559 733.907 836.565 731.303 839.548C728.746 842.484 725.408 844.922 721.289 846.864C717.217 848.805 712.246 849.776 706.374 849.776ZM715.962 825.699C720.839 825.699 724.959 824.373 728.32 821.722C731.729 819.023 734.334 815.259 736.133 810.429C737.979 805.599 738.903 799.941 738.903 793.455C738.903 786.968 738.003 781.333 736.204 776.551C734.405 771.769 731.8 768.076 728.391 765.472C724.982 762.867 720.839 761.565 715.962 761.565C710.991 761.565 706.8 762.915 703.391 765.614C699.982 768.312 697.402 772.053 695.65 776.835C693.898 781.617 693.022 787.157 693.022 793.455C693.022 799.799 693.898 805.41 695.65 810.287C697.449 815.116 700.03 818.904 703.391 821.651C706.8 824.349 710.991 825.699 715.962 825.699Z" fill="#5793FB"/>
<path d="M734.814 586.159C734.759 468.425 734.759 350.684 734.814 232.935C734.873 232.196 734.8 231.455 734.598 230.727C734.322 230.261 733.948 229.822 733.488 229.424C731.213 227.872 728.352 226.758 725.205 226.2C670.116 211.036 615.021 195.894 559.921 180.774C551.522 178.467 542.924 176.501 534.674 173.973C533.133 173.509 531.659 173.012 530.135 172.482C528.268 171.856 526.435 171.18 524.634 170.451C489.845 163.384 477.221 146.313 477.718 124.285C478.563 86.2024 477.983 48.0972 477.9 10.0254C478.9 6.57456 477.931 2.99985 475.183 0H99.7703C89.7975 0.660958 80.2616 3.06016 72.121 6.95633C65.2445 10.3249 59.5327 14.6374 55.3715 19.6033C51.2103 24.5693 48.6965 30.0723 48 35.7413V38.2147C49.1888 40.3287 49.5037 42.6165 48.9113 44.8394C48.9113 225.276 48.9113 405.719 48.9113 586.17C49.5045 588.393 49.1896 590.682 48 592.796V595.257C48.9983 601.477 51.9142 607.492 56.5648 612.925C61.0088 617.542 66.7939 621.519 73.5795 624.623C80.3651 627.728 88.0143 629.896 96.0761 631H684.037C694.75 630.339 704.937 627.602 713.343 623.127C719.686 619.716 724.942 615.495 728.802 610.711C732.663 605.927 735.05 600.677 735.824 595.269V592.807C734.593 590.693 734.244 588.395 734.814 586.159ZM218.337 317.768C223.886 314.202 235.93 316.808 245.108 316.786C294.046 316.698 343.016 316.786 391.954 316.786C447.352 316.786 502.767 316.874 558.165 316.686C565.322 316.686 568.221 317.79 567.376 322.781C566.266 329.218 571.485 337.677 565.223 341.663C559.507 345.329 546.999 342.679 537.557 342.69C433.834 342.69 330.094 342.69 226.338 342.833C218.304 342.833 215.189 341.663 216.2 336.098C217.392 329.848 212.307 321.678 218.353 317.781L218.337 317.768ZM455.967 516.74C405.157 516.453 354.348 516.608 303.555 516.608C277.048 516.608 250.542 516.497 224.036 516.685C218.039 516.685 215.752 515.648 216.133 511.529C216.67 506.611 216.67 501.674 216.133 496.755C215.57 491.974 217.79 490.483 225.245 490.527C264.044 490.781 302.842 490.648 341.641 490.648C380.125 490.648 418.609 490.76 457.093 490.539C463.935 490.539 466.486 491.642 465.857 496.335C465.199 500.837 465.199 505.371 465.857 509.873C466.735 515.195 464.382 516.795 455.95 516.74H455.967ZM565.753 457.225C559.905 461.355 547.695 458.529 538.302 458.562C489.315 458.706 440.328 458.628 391.324 458.628C336.174 458.628 281.008 458.518 225.874 458.739C218.188 458.739 215.504 457.436 216.2 452.257C216.745 447.339 216.745 442.401 216.2 437.483C215.868 433.663 217.856 432.558 223.539 432.602C246.351 432.79 269.13 432.679 291.942 432.679C380.374 432.679 468.805 432.768 557.237 432.558C565.421 432.558 568.254 433.861 567.376 439.349C566.415 445.433 571.104 453.438 565.753 457.225ZM565.223 399.609C559.491 403.264 546.999 400.615 537.557 400.626C433.817 400.626 330.094 400.626 226.388 400.781C218.337 400.781 215.222 399.577 216.249 394.023C217.392 387.795 212.306 379.668 218.37 375.737C223.953 372.149 235.98 374.766 245.158 374.744C294.106 374.663 343.044 374.663 391.97 374.744C447.385 374.744 502.783 374.832 558.182 374.644C565.355 374.644 568.238 375.748 567.393 380.739C566.266 387.166 571.518 395.601 565.289 399.609H565.223Z" fill="#4E8AFA"/>
</svg>
